<?xml version="1.0" encoding="utf-8"?>
<!-- Generator: Adobe Illustrator 18.1.1, SVG Export Plug-In . SVG Version: 6.00 Build 0)  -->
<svg version="1.1" id="Layer_1" xmlns="http://www.w3.org/2000/svg" xmlns:xlink="http://www.w3.org/1999/xlink" x="0px" y="0px"
	 viewBox="0 0 1500 224.6" enable-background="new 0 0 1500 224.6" xml:space="preserve">
<g>
	<g>
		<linearGradient id="SVGID_1_" gradientUnits="userSpaceOnUse" x1="34.9575" y1="192.6483" x2="298.4091" y2="192.6483">
			<stop  offset="0" style="stop-color:#757575"/>
			<stop  offset="0.1127" style="stop-color:#7D7D7D"/>
			<stop  offset="0.2803" style="stop-color:#919191"/>
			<stop  offset="0.4822" style="stop-color:#B2B2B2"/>
			<stop  offset="0.709" style="stop-color:#DFDFDF"/>
			<stop  offset="0.7253" style="stop-color:#E3E3E3"/>
			<stop  offset="0.7903" style="stop-color:#D7D7D7"/>
			<stop  offset="0.9076" style="stop-color:#C7C7C7"/>
			<stop  offset="1" style="stop-color:#C2C2C2"/>
		</linearGradient>
		<path fill="url(#SVGID_1_)" stroke="#E9EAEA" stroke-width="0.6312" d="M291.8,187.2c-5.5,0.2-11.1-0.1-16.6-0.8
			c-8.2-1-16.3-2.2-24.4-3.7c-9.8-1.9-19.6-4.1-29.5-5.7c-3-0.3-6-0.6-9.1-0.8c-13.9-0.9-27.8-0.5-41.7,0.2c-14,0.7-28,1.4-42,2.2
			c-14.6,0.8-29.2,1.9-43.7,3.2c-7.4,0.7-14.7,1.5-22.1,2.2c-3,0.3-6,0.3-9,0.4c-3.3,1.2-6.8,1.9-10.4,1.9h-3.6
			c-1.3,0-2.6-0.1-3.8-0.2c-0.6,0.8-0.9,1.7-0.9,2.5c0,11.6,59,21,131.7,21c72.8,0,131.7-9.4,131.7-21c0-0.7-0.2-1.4-0.6-2.1
			C295.9,186.9,293.9,187.1,291.8,187.2z"/>
		<path fill="#E4E4E5" stroke="#E9EAEA" stroke-width="0.6312" d="M297.7,188.1c0,8.5-59,15.4-131.7,15.4
			c-72.7,0-131.7-6.9-131.7-15.4c0-8.5,59-15.4,131.7-15.4C238.8,172.7,297.7,179.6,297.7,188.1z"/>
		<linearGradient id="SVGID_2_" gradientUnits="userSpaceOnUse" x1="40.3143" y1="187.7778" x2="293.6743" y2="187.7778">
			<stop  offset="0" style="stop-color:#FFFFFF"/>
			<stop  offset="1" style="stop-color:#B3B3B3"/>
		</linearGradient>
		<ellipse fill="url(#SVGID_2_)" cx="167" cy="187.8" rx="126.7" ry="13.3"/>
	</g>
	<path fill="#FFFFFF" d="M90.6,177.4c-6.3,0-50.5,5.1-50.5,10.6c0,7.3,56.7,13.3,126.7,13.3c7.7,0,15.3-0.1,22.6-0.2c0,0,0,0-0.1,0
		C146.4,196.3,102.1,189,90.6,177.4z"/>
	<g>
		<g>
			<path fill="#828282" d="M135.6,170c10.1-5.9,19-3.9,29.3,0.1c5,1.9,10.1,3.3,15.4,1.6c4.6-1.5,8.7-4.6,12.4-7.7
				c3.2-2.7,6-6.5,9.8-8.2c2.5-1.1,5.4-0.7,8-0.4c6.4,0.8,13.1,2,19.1,4.3c-0.1,0,0.1-1.1,0-1.1c-5.9-2.2-12.4-3.4-18.6-4.2
				c-2.8-0.4-5.9-0.9-8.6,0.3c-3.9,1.7-6.7,5.5-9.8,8.2c-3.6,3.1-7.8,6.2-12.4,7.7c-5,1.6-9.8,0.5-14.6-1.3
				c-4.8-1.8-9.4-4.1-14.6-4.4c-5.5-0.3-10.7,1.2-15.5,4C135.4,169,135.8,169.9,135.6,170L135.6,170z"/>
		</g>
	</g>
	<path fill="#581325" d="M57.5,181.4c-0.5-1.6,0.2,14.4,31.6,11c33.1-3.7,46.4-10.9,48.8-18.1c0.6-2.6-28-4.8-28-4.8L57.5,181.4z"/>
	<path fill="#F7F7F7" d="M59.1,174.9c-0.3-0.9-2.4,4.6-1.6,7.4c3.3,9.6,21.1,11.7,53.2-3.6c9.2-4.4,27.9,2.6,27.4-6.9
		c-0.1-1.8,1.7,6.9-16.4,2.3C106.8,171.3,66.9,197,59.1,174.9z"/>
	<path fill="#8C1B29" d="M59.2,174.4c-0.3-0.9-2.4,4.6-1.6,7.4c3.3,9.6,21.1,11.7,53.2-3.6c9.2-4.4,27.9,2.6,27.4-6.9
		c-0.1-1.8,1.7,6.9-16.4,2.3C106.9,170.8,67,196.5,59.2,174.4z"/>
	<path fill="#B8242E" d="M106.5,176.6c-22.1,10.7-46.5,9.1-47.7-2c0.1-0.2,0.1-0.3,0.2-0.5c24.8-41.6,79.9-13.4,79.3-2.4
		C137.8,180.3,118.8,170.2,106.5,176.6z"/>
	<path fill="#D2272E" d="M84.3,163.2c-4.1,2.5-7.7,6.4-10.4,11.9c0,0.1-0.1,0.2-0.1,0.3c1.4,6.9,16.8,6.6,30.1-1.4
		c0.1-0.1,0.2-0.1,0.3-0.2C110.4,171.2,89.6,160.8,84.3,163.2z"/>
	<path fill="#FFFFFF" d="M99.8,158.7c-2.4-0.2-2.5-1.3-2.5-1.5c-0.2-1.9,15.2-1.9,28.3,2c3.5,1.8,6.5,3.9,8.7,5.8
		C127.7,163,117.7,159.9,99.8,158.7z"/>
	<path fill="#262626" d="M117.7,159.1c0.2-1.3,8.3-3.4,10.7,2.4L117.7,159.1z"/>
	<g>
		
			<linearGradient id="SVGID_3_" gradientUnits="userSpaceOnUse" x1="238.5199" y1="889.1011" x2="7.1256" y2="820.9436" gradientTransform="matrix(0.972 0.2349 -0.2349 0.972 289.7212 -780.6353)">
			<stop  offset="0" style="stop-color:#8C8C8C"/>
			<stop  offset="3.724181e-002" style="stop-color:#9F9F9F"/>
			<stop  offset="0.1196" style="stop-color:#C2C2C2"/>
			<stop  offset="0.1973" style="stop-color:#DBDBDB"/>
			<stop  offset="0.2677" style="stop-color:#EAEAEA"/>
			<stop  offset="0.3242" style="stop-color:#F0F0F0"/>
			<stop  offset="0.511" style="stop-color:#C7C7C7"/>
			<stop  offset="0.7088" style="stop-color:#E0E0E0"/>
			<stop  offset="0.8221" style="stop-color:#DEDEDE"/>
			<stop  offset="0.8705" style="stop-color:#D7D7D7"/>
			<stop  offset="0.9065" style="stop-color:#CBCBCB"/>
			<stop  offset="0.9364" style="stop-color:#B9B9B9"/>
			<stop  offset="0.9625" style="stop-color:#A2A2A2"/>
			<stop  offset="0.9856" style="stop-color:#868686"/>
			<stop  offset="1" style="stop-color:#707070"/>
		</linearGradient>
		<path fill="url(#SVGID_3_)" stroke="#E9EAEA" stroke-width="0.6312" d="M240.6,25.8c0.7-0.7,1.3-1.6,1.8-2.6
			c2.3-4.3,1.8-9.2-1.2-10.8c-3-1.6-7.4,0.6-9.7,4.9c-0.5,1-0.9,2-1.1,3c-57.6-27-126.9-4.5-157.4,52.2
			C62.4,92.1,276.4,203.7,285.5,186.7C316.2,129.5,296.1,58.5,240.6,25.8z"/>
		
			<linearGradient id="SVGID_4_" gradientUnits="userSpaceOnUse" x1="163.0865" y1="801.7508" x2="163.0865" y2="938.6481" gradientTransform="matrix(0.972 0.2349 -0.2349 0.972 289.7212 -780.6353)">
			<stop  offset="0" style="stop-color:#E0E0E0"/>
			<stop  offset="1" style="stop-color:#FFFFFF"/>
		</linearGradient>
		<path opacity="0.65" fill="url(#SVGID_4_)" d="M204.9,155.1c17.2,8.4,33.5,15.7,46.7,20.7c8.7-17.3,21.1-99.1,4.9-133.8
			c-4.9-4.1-6-5.1-11.6-8.6C245.5,32.7,252.5,78.9,204.9,155.1z"/>
		
			<linearGradient id="SVGID_5_" gradientUnits="userSpaceOnUse" x1="20.5203" y1="847.2271" x2="103.8535" y2="847.2271" gradientTransform="matrix(0.972 0.2349 -0.2349 0.972 289.7212 -780.6353)">
			<stop  offset="0" style="stop-color:#E0E0E0"/>
			<stop  offset="0.5165" style="stop-color:#FFFFFF"/>
			<stop  offset="1" style="stop-color:#CFCFCF"/>
		</linearGradient>
		<path opacity="0.65" fill="url(#SVGID_5_)" d="M202.2,13.4c-32.6,10.8-72.7,33.2-103.4,83.5c6,4.5,10.7,7.2,10.7,7.2
			c31-61.4,65.4-80.4,95.2-90.3C203.7,13.4,203.1,13.8,202.2,13.4z"/>
		
			<linearGradient id="SVGID_6_" gradientUnits="userSpaceOnUse" x1="139.2207" y1="794.5796" x2="139.2207" y2="783.2737" gradientTransform="matrix(0.972 0.2349 -0.2349 0.972 289.7212 -780.6353)">
			<stop  offset="0" style="stop-color:#E0E0E0"/>
			<stop  offset="1" style="stop-color:#FFFFFF"/>
		</linearGradient>
		<path opacity="0.4" fill="url(#SVGID_6_)" d="M236.2,21.8c0.5,0.7,1.7,2.8,3.4,2.9c1.2-1.1,3.7-4.8,2.7-8.6
			c-0.7-2.4-2.2-2.8-2.4-2.9C240,13.1,240.8,16.5,236.2,21.8z"/>
	</g>
	<g>
		<g>
			<g>
				<path fill="#B8B8B8" d="M57.2,156.5c-2-0.4-2.2-2.2-2.4-4c0,0.7,0,1.3,0,2c0-3.7,1.6-7.2,3.8-10.1c1.9-2.6,3.7-4.4,3.9-7.7
					c0.3-5-3-8.6-4-13.3c0.2,1-0.2,2.1,0,3.2c0.8,3.7,3.2,6.7,4,10.4c0-1,0-2.1,0-3.1c-0.1,4.4-4.2,7.1-6,10.8
					c-1.1,2.2-1.6,4.7-1.7,7.1c-0.1,2.4-0.7,7.3,2.4,8C57,159.6,57.4,156.5,57.2,156.5L57.2,156.5z"/>
			</g>
		</g>
		<g>
			<g>
				<path fill="#B8B8B8" d="M78.6,144.3c-5.4-0.6-3.9-8.6-3-12.2c1.9-7.2,7.4-11.3,10.7-17.6c4.7-9.1-3.8-17.5-5.4-26.2
					c0.2,1-0.2,2.1,0,3.2c1.2,6.5,6.5,12.1,6.7,18.6c0-1,0-2.1,0-3.1c-0.7,5.9-5.7,9.7-8.7,14.5c-2.6,4.1-4,8.6-4.3,13.4
					c-0.3,3.8-1.1,12,4,12.6C78.5,147.4,78.7,144.3,78.6,144.3L78.6,144.3z"/>
			</g>
		</g>
	</g>
</g>
<g>
	<path fill="#CC0000" d="M353.8,45.1l0.7-0.6c14.8,0.5,23.4,0.7,25.7,0.7c2,0,10.6-0.2,25.7-0.7l0.7,0.6v4.5l-0.7,0.6
		c-4.1,0.1-7.3,0.3-9.6,0.5c-2.2,0.2-3.9,0.7-4.9,1.3c-1,0.7-1.7,2.2-2,4.6c-0.3,2.4-0.5,5.8-0.5,10.1l-0.2,20.6v39.7
		c0,9.9,0.1,16.9,0.2,20.8l0.4,15.5h18.3c14.6,0,23.7-0.2,27.3-0.5c3.6-0.4,7.1-1.2,10.5-2.6c0.7-1.5,1.6-4.9,2.8-10.3
		c1.2-5.4,1.9-8.5,1.9-9.3l0.8-0.7h4.4l0.6,0.7c-0.5,2.4-1,7-1.5,13.9c-0.5,6.9-0.8,12.4-0.8,16.7l-0.7,0.7
		c-11.4-0.4-26.3-0.5-44.8-0.5l-26.2-0.2c-6,0-9,1.7-15.7,3.1l-7,2l-0.5-7.5l4.9-1.4c3.7-1.9,5.7-3.1,6.1-3.5
		c0.4-0.4,0.7-4.3,1.1-11.6c0.4-7.3,0.6-16.1,0.6-26.4V87.5L371.5,70c-0.1-6.8-0.2-11.2-0.5-13.2c-0.3-2-0.7-3.3-1.3-3.9
		c-0.6-0.7-1.7-1.2-3.3-1.6c-1.6-0.4-5.6-0.7-11.9-1l-0.7-0.6V45.1z"/>
	<path fill="#600000" d="M495,137.7l-2.2,4.9c-4.7,3-8.9,5-12.6,5.9c-3.7,0.9-7,1.4-9.9,1.4c-5.4,0-10.6-1.1-15.5-3.2
		c-4.9-2.1-8.8-5.7-11.9-10.8c-3.1-5.1-4.6-11.2-4.6-18.3c0-4.8,0.6-9.1,1.8-12.9c1.2-3.8,2.4-6.7,3.7-8.5c1.3-1.9,3.5-3.9,6.6-6.2
		c3.1-2.3,6.3-4.1,9.8-5.4c3.4-1.4,7.2-2,11.1-2c5.4,0,10.2,1.3,14.4,3.8c4.1,2.6,7.1,5.8,8.7,9.8c1.7,4,2.5,8.2,2.5,12.7
		c0,1.4-0.1,2.8-0.2,4.1l-0.7,0.7c-3.1,0.7-7.2,1.1-12.4,1.4c-5.2,0.2-8.7,0.3-10.3,0.3h-21.8c0.1,9.4,2.4,16.3,7.1,20.7
		c4.6,4.4,10.3,6.7,17,6.7c3.2,0,6.2-0.5,9.1-1.6c2.9-1.1,6-2.6,9.3-4.6L495,137.7z M451.5,109.9c0.8,0.1,4,0.3,9.4,0.5
		c5.5,0.2,9.5,0.3,12.1,0.3c6.3,0,10.1-0.1,11.5-0.3c0-1.1,0.1-1.9,0.1-2.5c0-7-1.4-12.2-4.3-15.7c-2.9-3.4-6.8-5.1-11.7-5.1
		c-5.4,0-9.6,1.9-12.6,5.8C453,96.6,451.5,102.3,451.5,109.9z"/>
	<path fill="#D63333" d="M534.8,130.3c0,0-4.4-0.7-4.7-1.8c-0.3-1.1-1.1-2.3-2.4-3.6s-3.2-2.4-5.6-3.3c-2.4-0.9-4.9-1.3-7.6-1.3
		c-2.8,0-5.1,0.4-7,1.2c-1.9,0.8-3.4,2.1-4.6,3.7c-1.2,1.7-1.7,3.7-1.7,6c0,1.7,0.4,3.3,1.1,4.6c0.7,1.4,1.8,2.5,3.2,3.3
		c1.4,0.8,3,1.4,4.6,1.8l7.4,1.9c6.3,1.5,10.9,2.9,13.6,4s4.9,2.8,6.4,5.1c1.5,2.3,2.2,5.1,2.2,8.3c0,6.3-2.6,11.6-7.7,16.1
		c-5.2,4.5-11.8,6.7-19.9,6.7c-2.9,0-6.4-0.3-10.6-1c-4.2-0.6-7.9-1.3-10.8-2.1l-0.3-0.9l0.7-4.6c0.2-1.4,0.4-2.8,0.4-4.2
		c0-1.4,0.1-4.4,0.1-9l0.6-0.6h2.9l0.6,0.6c0.1,3.8,0.3,7.1,0.7,9.8c1.4,2.1,3.8,3.9,7.3,5.2c3.4,1.3,6.8,2,10.2,2
		c4.8,0,8.6-1.3,11.5-3.9c2.9-2.6,4.3-5.7,4.3-9.2c0-1.9-0.5-3.6-1.6-5.1c-1-1.4-2.6-2.6-4.7-3.5c-2.1-0.9-5.9-2-11.3-3.3
		c-4.7-1.1-7.9-1.9-9.8-2.5s-3.6-1.6-5.4-3.1c-1.7-1.5-3-3.2-3.9-5.3c-0.9-2.1-1.4-4.4-1.4-7c0-6.1,2.4-10.9,7.2-14.6
		c4.8-3.6,10.8-5.5,18-5.5c3,0,6.3,0.4,9.9,1.3c3.6,0.8,6.3,1.6,8.2,2.4"/>
	<path d="M635.3,100.1v20.3l0.1,19.5c0.1,7.3,0.3,12.1,0.6,14.5c0.3,2.4,0.8,3.9,1.5,4.6c0.6,0.7,1.9,1.3,3.7,1.8
		c1.8,0.5,6.2,0.9,13.3,1.2l0.8,0.6v5l-0.8,0.8c-17-0.5-26.6-0.8-28.8-0.8c-2.1,0-11.7,0.3-28.7,0.8l-0.8-0.8v-5l0.8-0.6
		c6.3-0.3,10.4-0.6,12.5-1c2-0.4,3.4-0.9,4.1-1.6c0.7-0.7,1.3-2,1.7-4c0.4-2,0.7-6.5,0.8-13.6l0.1-21.3V74L616,54.5
		c-0.1-7.6-0.3-12.5-0.5-14.7c-0.3-2.2-0.8-3.7-1.4-4.4c-0.6-0.7-1.9-1.3-3.7-1.8c-1.8-0.5-6.2-0.8-13.3-1.1l-0.8-0.7v-5L597,26
		c28.3,0.4,44.9,0.6,49.6,0.6c15.9,0,32.2-0.2,48.9-0.6l0.8,0.7c-1.1,3.3-1.8,7.1-2.1,11.4c-0.3,4.2-0.7,10.2-1.1,18l-0.8,0.8h-4.7
		l-0.7-0.8c-0.1-0.5-0.4-3-0.9-7.7c-0.3-3.7-0.9-7-1.6-10.1c-6.9-2.3-16.5-3.5-28.8-3.5c-5.5,0-11.9,0.4-19.2,1.2
		c-0.7,5.2-1.1,17.9-1.1,38.1v17.3c8.5,0.1,14.3,0.2,17.3,0.2c5.7,0,10.6-0.2,14.6-0.7c4.1-0.4,6.5-0.9,7.3-1.3
		c0.8-0.4,1.4-1.2,1.9-2.3c0.4-1.1,0.9-3.5,1.3-7.3l0.6-5.4l0.7-0.8h5.1l0.8,0.9l-0.7,21.9c0,2.5,0.1,6.2,0.3,11
		c0.3,5.5,0.4,9.7,0.4,12.7l-0.9,0.8h-5l-0.7-0.8l-0.4-8.5c-0.2-3.3-0.5-5.8-1-7.3c-0.5-1.5-1.2-2.5-2.3-3c-1.1-0.5-3.4-0.9-7.1-1.3
		c-3.7-0.4-9.3-0.6-16.9-0.6C643.8,99.8,638.7,99.9,635.3,100.1z"/>
	<path fill="#666666" d="M709.2,129.8l1.3,0.9c-0.5,5.9-0.7,13.5-0.7,22.6v15.4c0,1,0.1,4.2,0.3,9.6c0.2,5.4,0.4,8.6,0.6,9.5
		c0.2,0.9,0.5,1.6,0.9,2c0.4,0.4,0.9,0.7,1.5,0.8c0.6,0.1,3,0.3,7.3,0.6l0.6,0.5v2.9l-0.5,0.6c-5.7-0.4-11.1-0.5-16.4-0.5
		c-5.2,0-10.6,0.2-16.3,0.5l-0.6-0.6v-2.9l0.6-0.5c4.4-0.3,6.9-0.5,7.4-0.6c0.6-0.1,1.1-0.4,1.5-0.8s0.7-1.1,0.9-2
		c0.2-0.9,0.3-3.8,0.5-8.8c0.2-5,0.3-8.7,0.3-11.2v-13.4c0-1.8-0.1-4.3-0.3-7.4c-0.2-3.1-0.3-5.1-0.4-5.8c-0.1-0.7-0.5-1.3-1.1-1.6
		c-0.6-0.3-1.8-0.5-3.5-0.5l-5.7-0.1l-0.6-0.5v-2.9l0.5-0.5C696,133.9,703.3,132.2,709.2,129.8z M703.4,99.4c2.1,0,3.9,0.7,5.4,2.2
		c1.5,1.5,2.2,3.3,2.2,5.4c0,2.1-0.7,3.9-2.2,5.4c-1.5,1.5-3.3,2.2-5.4,2.2c-2.1,0-3.9-0.7-5.4-2.2c-1.5-1.5-2.3-3.3-2.3-5.4
		c0-2.1,0.8-3.9,2.3-5.4C699.5,100.2,701.3,99.4,703.4,99.4z"/>
	<path fill="#333333" d="M742.1,107.8l1.3,0.9c-0.3,3-0.5,7-0.5,12c3.6-3,7.1-6,10.3-9.1c1-0.9,1.8-1.5,2.7-1.9
		c0.8-0.4,2.2-0.8,4.2-1.3c1.9-0.5,3.9-0.7,6-0.7c3.4,0,6.8,0.7,10,2.1c3.2,1.4,5.7,3.1,7.3,5c1.7,1.9,2.8,4.2,3.4,6.8
		c0.6,2.6,1,5.9,1,9.7v12c0,0.8,0.1,6.4,0.3,16.9c0.1,4.3,0.6,6.9,1.4,7.7c0.9,0.8,3.7,1.2,8.4,1.2l0.5,0.5v2.9l-0.5,0.5
		c-5.8-0.4-9.7-0.5-11.7-0.5c-1.2,0-4.5,0.2-9.9,0.5l-0.8-0.7c0.6-5.9,0.9-13.6,0.9-23v-8.9c0-5.3-0.1-9.2-0.4-11.6
		c-0.3-2.4-1-4.5-2.3-6.4c-1.3-1.9-3-3.4-5.1-4.5c-2.1-1.1-4.7-1.6-7.6-1.6c-2.4,0-4.4,0.2-6,0.7c-1.7,0.5-3.6,1.5-5.6,2.9
		c-2.1,1.5-3.6,2.9-4.6,4.1c-1,1.3-1.6,2.5-1.8,3.6c-0.2,1.1-0.3,3.5-0.3,7.1v11.8c0,1,0.1,4.2,0.3,9.6c0.2,5.4,0.4,8.6,0.6,9.5
		c0.2,0.9,0.5,1.6,0.9,2c0.4,0.4,0.9,0.7,1.5,0.8c0.6,0.1,3,0.3,7.3,0.6l0.6,0.5v2.9l-0.5,0.6c-5.7-0.4-11.1-0.5-16.4-0.5
		c-5.2,0-10.6,0.2-16.3,0.5l-0.6-0.6v-2.9l0.6-0.5c4.4-0.3,6.9-0.5,7.4-0.6c0.6-0.1,1.1-0.4,1.5-0.8c0.4-0.4,0.7-1.1,0.9-2
		c0.2-0.9,0.3-3.8,0.5-8.8c0.2-5,0.3-8.7,0.3-11.2v-13.4c0-1.8-0.1-4.3-0.3-7.4c-0.2-3.1-0.3-5.1-0.4-5.8c-0.1-0.7-0.5-1.3-1.1-1.6
		c-0.6-0.3-1.8-0.5-3.5-0.5l-5.7-0.1l-0.6-0.5v-2.9l0.5-0.5C728.9,111.8,736.2,110.1,742.1,107.8z"/>
	<path fill="#0D0909" d="M851.7,179.1l-2.2,4.9c-4.7,3-8.9,5-12.6,5.9c-3.7,0.9-7,1.4-9.9,1.4c-5.4,0-10.6-1.1-15.5-3.2
		c-4.9-2.1-8.8-5.7-11.9-10.8c-3.1-5.1-4.6-11.2-4.6-18.3c0-4.8,0.6-9.1,1.8-12.9c1.2-3.8,2.4-6.7,3.7-8.5c1.3-1.9,3.5-3.9,6.6-6.2
		c3.1-2.3,6.3-4.1,9.8-5.4c3.4-1.4,7.2-2,11.1-2c5.4,0,10.2,1.3,14.4,3.8c4.1,2.6,7.1,5.8,8.7,9.8c1.7,4,2.5,8.2,2.5,12.7
		c0,1.4-0.1,2.8-0.2,4.1l-0.7,0.7c-3.1,0.7-7.2,1.1-12.4,1.4c-5.2,0.2-8.7,0.3-10.3,0.3h-21.8c0.1,9.4,2.4,16.3,7.1,20.7
		c4.6,4.4,10.3,6.7,17,6.7c3.2,0,6.2-0.5,9.1-1.6c2.9-1.1,6-2.6,9.3-4.6L851.7,179.1z M808.1,151.3c0.8,0.1,4,0.3,9.4,0.5
		c5.5,0.2,9.5,0.3,12.1,0.3c6.3,0,10.1-0.1,11.5-0.3c0-1.1,0.1-1.9,0.1-2.5c0-7-1.4-12.2-4.3-15.7c-2.9-3.4-6.8-5.1-11.7-5.1
		c-5.4,0-9.6,1.9-12.6,5.8C809.6,138,808.1,143.7,808.1,151.3z"/>
	<path fill="#999999" d="M851.3,149.8h2.9l0.6,0.6c0.1,3.8,0.3,7.1,0.7,9.8c1.4,2.1,3.8,3.9,7.3,5.2c3.4,1.3,6.8,2,10.2,2
		c4.8,0,8.6-1.3,11.5-3.9c2.9-2.6,4.3-5.7,4.3-9.2c0-1.9-0.5-3.6-1.6-5.1c-1-1.4-2.6-2.6-4.7-3.5c-2.1-0.9-5.9-2-11.3-3.3
		c-4.7-1.1-7.9-1.9-9.8-2.5c-1.9-0.6-3.6-1.6-5.4-3.1c-1.7-1.5-3-3.2-3.9-5.3c-0.9-2.1-1.4-4.4-1.4-7c0-6.1,2.4-10.9,7.2-14.6
		c4.8-3.6,10.8-5.5,18-5.5c3,0,6.3,0.4,9.9,1.3c3.6,0.8,6.3,1.6,8.2,2.4l0.6,1c-0.4,1.8-0.6,6.6-0.7,14.3l-0.6,0.6h-2.7l-0.6-0.6
		c-0.2-2.8-0.4-4.7-0.7-5.8c-0.3-1.1-1.1-2.3-2.4-3.6s-3.2-2.4-5.6-3.3c-2.4-0.9-4.9-1.3-7.6-1.3c-2.8,0-5.1,0.4-7,1.2
		c-1.9,0.8-3.4,2.1-4.6,3.7c-1.2,1.7-1.7,3.7-1.7,6c0,1.7,0.4,3.3,1.1,4.6c0.7,1.4,1.8,2.5,3.2,3.3c1.4,0.8,3,1.4,4.6,1.8l7.4,1.9
		c6.3,1.5,10.9,2.9,13.6,4c2.7,1.1,4.9,2.8,6.4,5.1c1.5,2.3,2.2,5.1,2.2,8.3c0,6.3-2.6,11.6-7.7,16.1s-11.8,6.7-19.9,6.7
		c-2.9,0-6.4-0.3-10.6-1c-4.2-0.6-7.9-1.3-10.8-2.1l-0.3-0.9l0.7-4.6c0.2-1.4,0.4-2.8,0.4-4.2s0.1-4.4,0.1-9L851.3,149.8z"/>
	<path fill="#F7931E" d="M1083.6,111.2v2.7l-0.4,1.1l-4.9,2.6c-1.2,0.7-1.9,1.2-2.1,1.5c-0.2,0.4-0.4,2.2-0.7,5.4
		c-0.3,3.2-0.4,7.2-0.4,11.8c0,5.2,0.4,10.9,1.1,17.1l-0.6,0.9c-18.2,6.3-36.9,9.5-56,9.5c-14.7,0-28-2.5-39.9-7.6
		c-11.9-5.1-21.3-12.6-28.3-22.5S941,112,941,98.3c0-20.9,7.8-37.5,23.5-49.8c15.7-12.3,36.2-18.5,61.4-18.5
		c18.6,0,35.3,2.9,50.1,8.6l0.7,1c-1.2,4-2.6,12.5-4.2,25.4l-0.8,0.6h-4.6l-0.8-0.7l-0.5-9.6c-0.2-3.1-0.4-5-0.6-5.5
		c-0.2-0.5-0.9-1.3-2.1-2.1c-1.2-0.9-4.3-2.3-9.2-4.2c-4.9-1.9-9.9-3.3-14.9-4.2c-5-0.9-10.3-1.3-16-1.3c-12.1,0-22.9,2.3-32.2,6.9
		c-9.4,4.6-16.4,11.3-21.1,20c-4.7,8.8-7.1,18.5-7.1,29.3c0,11.1,2.6,21.4,7.7,31c5.1,9.6,12.4,17,22,22.4
		c9.6,5.4,20.7,8.1,33.3,8.1c5.5,0,11.1-0.5,16.9-1.5c5.7-1,10.5-2.4,14.2-4.2c0.6-1.9,0.9-5.8,0.9-11.7v-10c0-4.8-0.3-7.7-1-8.9
		c-0.7-1.2-2.3-2-4.9-2.5c-2.6-0.5-8.3-0.8-17-0.9l-0.9-0.8v-4l0.9-0.8l6.1,0.2c10.4,0.3,18.9,0.5,25.5,0.5c3.8,0,9.3-0.2,16.6-0.5
		L1083.6,111.2z"/>
	<path fill="#FABE78" d="M1093.9,81l1.4,1c-0.5,6.5-0.8,14.8-0.8,24.9v17.4c0,6.4,0.5,10.8,1.5,13.3c1,2.5,2.7,4.4,5,5.7
		c2.4,1.3,5.2,2,8.5,2c3.6,0,7-0.7,9.9-2.1c3-1.4,5.5-3.4,7.5-6c2-2.6,3.2-4.3,3.5-5.2s0.5-3.4,0.6-7.6l0.2-8.4v-8.1
		c0-2-0.1-4.7-0.3-8.1c-0.2-3.4-0.4-5.6-0.5-6.4c-0.1-0.8-0.5-1.4-1.2-1.8c-0.6-0.4-1.9-0.6-3.9-0.6l-6.3-0.1l-0.7-0.6v-3.2l0.6-0.6
		c9.5-1.1,17.5-3,24.1-5.6l1.4,1c-0.5,6.5-0.8,14.8-0.8,24.9V120c0,0.7,0.1,6.9,0.4,18.3c0.1,4.2,0.4,6.8,0.8,7.7
		c0.4,0.9,1,1.6,1.8,1.9c0.7,0.4,3,0.6,6.7,0.6h2.1l0.7,0.6v3l-0.6,0.7c-7-0.4-11.7-0.6-14.1-0.6c-3,0-6.6,0.2-10.5,0.5l-0.7-0.6
		c0.3-5.1,0.5-9.4,0.7-12.9c-3.1,2.4-6.7,5.7-10.8,9.8c-1.5,1.5-3.8,2.8-6.7,3.9c-2.9,1-6.2,1.6-9.9,1.6c-5.6,0-9.9-0.9-13-2.7
		c-3.1-1.8-5.3-4.2-6.6-7.3c-1.3-3.1-1.9-8.5-1.9-16.1l0.1-5.9v-14.6c0-2-0.1-4.7-0.3-8.1c-0.2-3.4-0.4-5.6-0.5-6.4
		c-0.1-0.8-0.5-1.4-1.2-1.8c-0.6-0.4-1.9-0.6-3.9-0.6l-6.3-0.1l-0.7-0.6v-3.2l0.6-0.6C1079.3,85.5,1087.3,83.6,1093.9,81z"/>
	<path fill="#B96E16" d="M1218.1,174.4l-2.4,5.4c-5.2,3.3-9.8,5.5-13.9,6.5c-4.1,1-7.7,1.5-10.9,1.5c-6,0-11.7-1.2-17-3.5
		c-5.4-2.3-9.7-6.3-13.1-11.9c-3.4-5.6-5-12.3-5-20.2c0-5.2,0.6-10,1.9-14.2c1.3-4.2,2.7-7.3,4.1-9.4c1.4-2,3.8-4.3,7.2-6.8
		c3.4-2.5,7-4.5,10.8-6c3.8-1.5,7.9-2.2,12.3-2.2c6,0,11.3,1.4,15.8,4.2c4.6,2.8,7.8,6.4,9.6,10.8c1.8,4.4,2.8,9,2.8,14
		c0,1.5-0.1,3-0.2,4.5l-0.8,0.8c-3.4,0.7-8,1.2-13.7,1.5c-5.7,0.2-9.5,0.4-11.4,0.4h-24c0.1,10.3,2.7,17.9,7.8,22.8
		c5.1,4.9,11.3,7.3,18.7,7.3c3.5,0,6.8-0.6,10.1-1.8c3.2-1.2,6.6-2.9,10.2-5L1218.1,174.4z M1170.2,143.8c0.9,0.1,4.3,0.3,10.4,0.5
		c6,0.2,10.5,0.3,13.3,0.3c6.9,0,11.1-0.1,12.6-0.4c0-1.2,0.1-2.1,0.1-2.8c0-7.7-1.6-13.5-4.7-17.2s-7.4-5.6-12.9-5.6
		c-5.9,0-10.6,2.1-13.9,6.4C1171.9,129.2,1170.2,135.5,1170.2,143.8z"/>
	<path fill="#F7931E" d="M1232,89.3l1.4,1c-0.5,6.5-0.8,14.8-0.8,24.9V127c0,6.4,0.5,16.3,1.5,18.8s2.7,4.4,5,5.7
		c2.4,1.3,5.2,2,8.5,2c3.6,0,7-0.7,9.9-2.1c3-1.4,5.5-3.4,7.5-6c2-2.6,3.2-4.3,3.5-5.2s0.5-3.4,0.6-7.6l0.2-8.4v-8.1
		c0-2-0.1-4.7-0.3-8.1c-0.2-3.4-0.4-5.6-0.5-6.4c-0.1-0.8-0.5-1.4-1.2-1.8c-0.6-0.4-1.9-0.6-3.9-0.6l-6.3-0.1l-0.7-0.6v-3.2l0.6-0.6
		c9.5-1.1,17.5-3,24.1-5.6l1.4,1c-0.5,6.5-0.8,14.8-0.8,24.9v13.2c0,0.7,0.1,6.9,0.4,18.3c0.1,4.2,0.4,6.8,0.8,7.7
		c0.4,0.9,1,1.6,1.8,1.9c0.7,0.4,3,0.6,6.7,0.6h2.1l0.7,0.6v3l-0.6,0.7c-7-0.4-11.7-0.6-14.1-0.6c-3,0-6.6,0.2-10.5,0.5l-0.7-0.6
		c0.3-5.1,0.5-9.4,0.7-12.9c-3.1,2.4-6.7,5.7-10.8,9.8c-1.5,1.5-3.8,2.8-6.7,3.9s-6.2,1.6-9.9,1.6c-5.6,0-9.9-0.9-13-2.7
		c-3.1-1.8-5.3-4.2-6.6-7.3c-1.3-3.1-1.9-8.5-1.9-16.1l0.1-5.9v-14.6c0-2-0.1-4.7-0.3-8.1c-0.2-3.4-0.4-5.6-0.5-6.4
		c-0.1-0.8-0.5-1.4-1.2-1.8c-0.6-0.4-1.9-0.6-3.9-0.6l-6.3-0.1l-0.7-0.6v-3.2l0.6-0.6C1217.4,93.7,1225.4,91.9,1232,89.3z"/>
	<path fill="#FFBB6B" d="M1318.1,60.8l1.4,0.9c-0.6,5.7-0.8,17.2-0.8,34.5v46.9c0,1.1,0.1,4.6,0.3,10.6c0.2,6,0.4,9.4,0.6,10.4
		c0.2,1,0.6,1.7,1,2.2c0.5,0.5,1,0.7,1.6,0.9c0.6,0.1,3.3,0.3,8.1,0.6l0.7,0.6v3.1l-0.6,0.7c-6.2-0.4-12.2-0.6-18-0.6
		c-5.7,0-11.7,0.2-17.9,0.6l-0.7-0.7v-3.1l0.7-0.6c4.8-0.3,7.6-0.5,8.2-0.7c0.6-0.2,1.2-0.5,1.6-0.9c0.5-0.5,0.8-1.2,1-2.2
		c0.2-1,0.4-4.2,0.6-9.6c0.2-5.5,0.3-9.6,0.3-12.4v-38.7l-0.3-15.8c-0.2-5.5-0.3-9.4-0.5-11.5c-0.2-2.1-0.4-3.4-0.7-3.8
		c-0.3-0.4-0.8-0.7-1.6-0.9c-0.7-0.2-3.8-0.3-9-0.3l-0.7-0.7V67l0.6-0.7C1303.6,65.3,1311.6,63.4,1318.1,60.8z"/>
	<path fill="#F7931E" d="M1392.5,141.3l-2.4,5.4c-5.2,3.3-9.8,5.5-13.9,6.5c-4.1,1-7.7,1.5-10.9,1.5c-6,0-11.7-1.2-17-3.5
		c-5.4-2.3-9.7-6.3-13.1-11.9c-3.4-5.6-5-12.3-5-20.2c0-5.2,0.6-10,1.9-14.2c1.3-4.2,2.7-7.3,4.1-9.4c1.4-2,3.8-4.3,7.2-6.8
		c3.4-2.5,7-4.5,10.8-6c3.8-1.5,7.9-2.2,12.3-2.2c6,0,11.3,1.4,15.8,4.2c4.6,2.8,7.8,6.4,9.6,10.8c1.8,4.4,2.8,9,2.8,14
		c0,1.5-0.1,3-0.2,4.5l-0.8,0.8c-3.4,0.7-8,1.2-13.7,1.5c-5.7,0.2-9.5,0.4-11.4,0.4h-24c0.1,10.3,2.7,17.9,7.8,22.8
		s11.3,7.3,18.7,7.3c3.5,0,6.8-0.6,10.1-1.8c3.2-1.2,6.6-2.9,10.2-5L1392.5,141.3z M1344.6,110.7c0.9,0.1,4.3,0.3,10.4,0.5
		c6,0.2,10.5,0.3,13.3,0.3c6.9,0,11.1-0.1,12.6-0.4c0-1.2,0.1-2.1,0.1-2.8c0-7.7-1.6-13.5-4.7-17.2c-3.1-3.8-7.4-5.6-12.9-5.6
		c-5.9,0-10.6,2.1-13.9,6.4C1346.3,96.1,1344.6,102.4,1344.6,110.7z"/>
	<path fill="#552F02" d="M1389,175.2c1.5,2.3,10.6,6.6,14.4,8.1c3.8,1.5,7.5,2.2,11.2,2.2c5.3,0,9.5-1.4,12.7-4.3
		c3.2-2.8,4.7-6.2,4.7-10.2c0-2.1-0.6-4-1.7-5.6c-1.1-1.6-2.9-2.9-5.2-3.9c-2.3-1-6.5-2.2-12.4-3.6c-5.1-1.2-8.7-2.1-10.8-2.8
		c-2-0.7-4-1.8-5.9-3.4c-1.9-1.6-3.3-3.5-4.3-5.9c-1-2.3-1.5-4.9-1.5-7.7c0-6.7,2.7-12,8-16c5.3-4,11.9-6,19.8-6
		c3.3,0,7,0.5,10.9,1.4s6.9,1.8,9,2.7l0.7,1c-0.4,2-0.6,7.2-0.7,15.7l-0.7,0.7h-3l-0.7-0.7c-0.2-3-0.5-5.2-0.8-6.4
		c-0.3-1.2-1.2-2.5-2.7-4c-1.4-1.4-3.5-2.6-6.1-3.6c-2.6-1-5.4-1.5-8.4-1.5c-3,0-5.6,0.5-7.7,1.3c-2.1,0.9-3.7,2.3-5,4.1
		s-1.9,4-1.9,6.6c0,1.9,0.4,3.6,1.2,5.1c0.8,1.5,2,2.7,3.6,3.6c1.6,0.9,3.3,1.6,5,2l8.1,2.1c7,1.7,12,3.2,15,4.4
		c3,1.2,5.3,3.1,7,5.6c1.6,2.5,2.5,5.6,2.5,9.2c0,6.9-2.8,12.8-8.5,17.7c-5.7,4.9-13,7.4-21.9,7.4c-3.1,0-7-0.3-11.7-1
		c-4.7-0.7-13.1-6.2-13.1-6.2"/>
</g>
<path fill="#CC0000" d="M359,168.8c1-0.3-6.9,3.2-12.1,4.6c-1.7,0.4-1.9,0.9-3.4,1.3c-0.9,0.8-3.2,1.9-4.4,2.5
	c-11.2,5.5-24.8,9.3-32.3-4.8c-3.5-6.6,0-16.4,6.2-22.4c4.2-4.1,13-3,18,2c3,4,5,9,3,13c-3,6-11,8-16,4c-5-6,7-10,4-15
	c-2-4-8,1-11,4c-2,4-2,8,0,12c5,9,16,7,23,1c6-7,4-19-5-23c-6-3-14-3-19,1c-5,5-8,10-6.7,16.8c0.1,1.4,0.3,2.7,0.6,4
	c0.6,2.6,1.7,5.2,3.2,7.5c0.9,1.1,1.9,2.2,3.1,3.1c1,0.9,2,1.6,3,2.3c1.1,0.6,2.2,1.2,3.4,1.6c1.3,0.6,2.7,1,4.1,1.4
	s3.3,1.1,4.9,1.1c1.2,0.3,3.1,0.4,4,0.4c4.2,0.4,9.1-0.8,9.1-0.8l6.7-2.5l14.1-7.7"/>
<path fill="#552F02" d="M1388,183.5c-2.3-1.2-0.5-0.9-3.3-1.5c-0.7-0.1-2-0.2-2.8-0.3c-0.8-0.1,0.5,0.1-2.8-0.2
	c-1.8-0.5-1.8-0.5-4.1-0.8c-8.4-1.3-17.5,1.3-21.9,8.3c-0.5,1.3-0.9,2.6-1.1,3.9c-0.2,1.4-0.3,2.7-0.3,4.5c-0.2,3.4,0.6,6.8,2.2,9.7
	c0.4,0.7,0.9,1.4,1.4,2.1c2.3,3.2,5.6,5.2,9.1,6c0.9,0.2,1.8,0.3,3.2,0.4C1378,216,1386,206,1381,197c-3-3-6-6-11-5c-4,1-7,8-2,10
	c0-4,6-7,8-3c3,5-1,10-6,11c-4,1-9-2-10-6c-2-8,4-14,12-14c10,1,15,11,10.7,20.4c-0.2,0.6-0.4,1.2-0.7,1.8s-0.6,1.2-1,1.8
	c-6,8-18,10-25.5,2.5c-1.1-0.7-2-1.5-2.8-2.5c-3.2-3.7-4.7-9-6.7-13c-3-9,3-20,12.7-23.2c1.4-0.5,2.5-0.9,3.3-1.1
	c1.6-0.5,3.2-0.9,5.1-1.3c5.5-1.3,9.9-1.4,11.8-1.3c4,0,7.5,0.6,10.2,1.2"/>
<path fill="#D63333" d="M534.8,130.3"/>
<path fill="#D63333" d="M539,128.9"/>
<path fill="#D63333" d="M534.8,119.1l6.2-3.6c0.2-0.1,0.3-0.2,0.4-0.4c3.7-5.1,7.4-8.7,10.8-11.3c0.6-0.4,1.1-0.9,1.7-1.3
	c0,0,0.1,0,0.1-0.1c3.9-3.5,9.9-5.5,16.2-5.8c0.8-0.1,2-0.1,3.3,0c9.9-0.6,17,7.6,16.4,15.6c-0.1,1,0.4,1.4,0,2.4
	c-0.2,0.9-0.4,2.1-1,3c-0.3,0.5-1.2,1.6-1.6,2.2c-1.8,3.6-6.4,6.3-10.4,7.3c-9,2-14.2-2.4-18.2-9.4c-0.3-1-1.6-3.6-1.3-4.5
	c1.2-3.8,0.2-1.3,1.2-3.8c0.3-0.8,2.7-3.8,3.3-4.2c0.6-0.4,1.5-1.2,2.1-1.4c1.7-0.8,3.1-1.4,4.9-1.4c0.6,0,1.2,0.1,1.8,0.2
	c0.7,0,1.4,0.1,2.3,0.3c0.6,0.1,1.2,0.3,1.9,0.6c1.9,0.5,3,0.9,4.8,2.8c0.4,0.5,0.9,1.2,1.3,1.9c3.2,5.8-0.7,13.5-5.9,14.4
	c-5.3,0.9-6.5-0.5-9-3.1c-2.3-2.3-2.5-9.6,1.9-10.6c-2,2-3,5-2,8c1,4,4,6,8,5c3-1,5.9-3,6.7-5.1c2-6-1.7-11.9-7.4-13
	c-0.8-0.2-1.5-0.2-2.2-0.2c-1.4,0-2.7,0.3-3.9,0.9c-0.6,0.3-1.1,0.6-1.6,0.9c-0.4,0.3-0.8,0.7-1.2,1.2c-0.5,0.5-0.9,1-1.3,1.5
	c-0.4,0.5-0.8,1-1.1,1.6c-0.3,0.6-0.5,1.2-0.7,1.9c-0.2,0.9-0.4,1.7-0.4,2.5c0,1.3,0.4,2.4,1.1,3.4c0.3,0.5,0.7,0.9,1.1,1.3
	c0.4,0.6,0.8,1.2,1.2,1.5c1.6,1.8,3.6,2.8,6.5,3.4c0.4,0.1,0.8,0.3,1.1,0.4c4,1,6.4-1.3,10-4c8-6.1,1.4-18.6-7.6-19.3
	c-1.1-0.2-6.6,0.4-7.6,0.4c-4.1,0.2-8,2-10.3,6.1c-0.7,0.9-1.3,1.6-1.9,2.3c-1.6,2.1-3.1,4.4-4.5,6.9c-0.8,1.5-15.1,13.2-15.4,14"/>
<path fill="#F7931E" d="M956.2,56.2c-2.8,0.1-15.2,17.7-18.4,16.9c-0.8-0.2-2.2-0.8-3-1.1c-0.9-0.3,0.6,0.2-3-1.2
	c-2.1-0.4-2.1-0.4-4.5-1.1c-9.2-2.8-17.6-9.7-19.3-18.7c0-1.5,0.1-3,0.4-4.4c0.3-1.5,0.8-2.8,1.5-4.5c1.1-3.4,3.3-6.4,6.1-8.5
	c0.7-0.5,1.4-1,2.2-1.4c3.6-2,7.9-2.4,11.8-1.5c1,0.2,2,0.6,3.5,1.1c11,4.5,15.3,18.3,6.5,24.7c-4.3,1.5-8.6,3-13.3-0.4
	c-3.7-2.9-4.1-11.3,1.9-10.9c-1.6,4,3.4,9.8,7.1,6.8c5.1-3.5,2.9-10.4-1.8-13.8c-3.7-2.9-10.1-2.4-12.7,1.1
	c-5.2,6.9-1.4,15.8,6.8,19.6c10.7,3.8,19.8-3.6,19.1-15c0-0.7,0-1.4,0-2.1c-0.1-0.7-0.2-1.5-0.3-2.3c-3-10.8-14.6-18.6-25.3-14.8
	c-1.4,0.2-2.6,0.6-3.8,1.1c-4.7,2.1-8.5,6.6-12.1,9.6c-6.7,7.5-4.8,21.2,3.9,29.1c1.3,1.2,2.2,2.1,2.9,2.7c1.4,1.3,3,2.4,4.7,3.8
	c5.2,3.9,9.7,6.1,11.7,7c4.2,1.9,10.5,5.8,13.5,6.5"/>
</svg>
