<?xml version="1.0" encoding="utf-8"?>
<!-- Generator: Adobe Illustrator 18.1.1, SVG Export Plug-In . SVG Version: 6.00 Build 0)  -->
<svg version="1.1" id="Layer_1" xmlns="http://www.w3.org/2000/svg" xmlns:xlink="http://www.w3.org/1999/xlink" x="0px" y="0px"
	 viewBox="0 0 1500 246" enable-background="new 0 0 1500 246" xml:space="preserve">
<g>
	<g>
		<linearGradient id="SVGID_1_" gradientUnits="userSpaceOnUse" x1="15.0241" y1="212.7307" x2="304.4157" y2="212.7307">
			<stop  offset="0" style="stop-color:#757575"/>
			<stop  offset="0.1127" style="stop-color:#7D7D7D"/>
			<stop  offset="0.2803" style="stop-color:#919191"/>
			<stop  offset="0.4822" style="stop-color:#B2B2B2"/>
			<stop  offset="0.709" style="stop-color:#DFDFDF"/>
			<stop  offset="0.7253" style="stop-color:#E3E3E3"/>
			<stop  offset="0.7903" style="stop-color:#D7D7D7"/>
			<stop  offset="0.9076" style="stop-color:#C7C7C7"/>
			<stop  offset="1" style="stop-color:#C2C2C2"/>
		</linearGradient>
		<path fill="url(#SVGID_1_)" stroke="#E9EAEA" stroke-width="0.6312" d="M297.2,206.7c-6.1,0.3-12.2-0.1-18.2-0.9
			c-9-1.1-18-2.4-26.9-4c-10.8-2-21.5-4.5-32.4-6.3c-3.3-0.4-6.6-0.7-10-0.9c-15.3-0.9-30.6-0.6-45.8,0.2
			c-15.4,0.7-30.8,1.6-46.1,2.4c-16,0.9-32,2-48,3.6c-8.1,0.8-16.2,1.7-24.3,2.4c-3.3,0.3-6.6,0.4-9.9,0.5c-3.6,1.3-7.4,2-11.4,2h-4
			c-1.4,0-2.8-0.1-4.2-0.3c-0.7,0.9-1,1.8-1,2.8c0,12.8,64.8,23.1,144.7,23.1c79.9,0,144.7-10.4,144.7-23.1c0-0.8-0.2-1.5-0.7-2.3
			C301.6,206.4,299.4,206.6,297.2,206.7z"/>
		<path fill="#E4E4E5" stroke="#E9EAEA" stroke-width="0.6312" d="M303.7,207.7c0,9.3-64.8,16.9-144.7,16.9
			c-79.9,0-144.7-7.6-144.7-16.9c0-9.3,64.8-16.9,144.7-16.9C238.9,190.8,303.7,198.4,303.7,207.7z"/>
		<linearGradient id="SVGID_2_" gradientUnits="userSpaceOnUse" x1="20.9084" y1="207.3806" x2="299.2148" y2="207.3806">
			<stop  offset="0" style="stop-color:#FFFFFF"/>
			<stop  offset="1" style="stop-color:#B3B3B3"/>
		</linearGradient>
		<ellipse fill="url(#SVGID_2_)" cx="160.1" cy="207.4" rx="139.2" ry="14.6"/>
	</g>
	<path fill="#FFFFFF" d="M76.2,196c-7,0-55.5,5.6-55.5,11.6c0,8.1,62.3,14.6,139.1,14.6c8.5,0,16.8-0.1,24.8-0.2c0,0,0,0-0.1,0
		C137.5,216.8,88.8,208.7,76.2,196z"/>
	<g>
		<g>
			<path fill="#828282" d="M125.6,187.8c5.1-3,10.6-4.7,16.5-4.4c5.9,0.3,11,2.8,16.5,4.9c5.4,2,10.8,3.2,16.4,1.3
				c5-1.8,9.6-5.2,13.6-8.6c3.3-2.9,6.3-6.9,10.5-8.7c2.8-1.2,5.9-0.7,8.8-0.3c7,0.9,14.3,2.2,20.9,4.7c-0.1,0,0.1-1.1,0-1.1
				c-6.4-2.4-13.6-3.7-20.4-4.6c-2.8-0.4-6-0.9-8.8,0.1c-4.4,1.6-7.6,5.9-11,8.9c-3.8,3.3-8.2,6.5-12.9,8.4
				c-5.5,2.1-10.9,1.3-16.4-0.7c-5.4-2-10.6-4.7-16.4-5.1c-6.2-0.4-12.1,1.3-17.4,4.4C125.4,186.8,125.7,187.7,125.6,187.8
				L125.6,187.8z"/>
		</g>
	</g>
	<path fill="#581325" d="M39.8,200.3c-0.6-1.8,0.3,15.9,34.8,12c36.3-4.1,50.9-11.9,53.6-19.9c0.6-2.8-30.8-5.3-30.8-5.3L39.8,200.3
		z"/>
	<path fill="#F7F7F7" d="M41.6,193.2c-0.3-1-2.6,5.1-1.7,8.2c3.7,10.5,23.1,12.9,58.5-3.9c10.1-4.8,30.7,2.9,30.1-7.5
		c-0.1-1.9,1.8,7.5-18,2.5C94,189.3,50.1,217.5,41.6,193.2z"/>
	<path fill="#8C1B29" d="M41.7,192.7c-0.3-1-2.6,5.1-1.7,8.2c3.7,10.5,23.1,12.9,58.5-3.9c10.1-4.8,30.7,2.9,30.1-7.5
		c-0.1-1.9,1.8,7.5-18,2.5C94.1,188.8,50.2,216.9,41.7,192.7z"/>
	<path fill="#B8242E" d="M93.7,195.1c-24.3,11.8-51,10-52.4-2.2c0.1-0.2,0.1-0.4,0.2-0.5c27.2-45.7,87.8-14.8,87.1-2.6
		C128,199.2,107.1,188,93.7,195.1z"/>
	<path fill="#D2272E" d="M69.2,180.4c-4.5,2.8-8.5,7-11.4,13.1c0,0.1-0.1,0.2-0.1,0.3c1.6,7.6,18.5,7.3,33.1-1.5
		c0.1-0.1,0.2-0.1,0.3-0.2C97.8,189.2,75,177.8,69.2,180.4z"/>
	<path fill="#FFFFFF" d="M86.2,175.5c-2.6-0.2-2.7-1.4-2.8-1.7c-0.3-2.1,16.7-2.1,31.1,2.2c3.9,2,7.1,4.2,9.5,6.4
		C116.9,180.1,106,176.7,86.2,175.5z"/>
	<path fill="#262626" d="M106,175.9c0.2-1.5,9.2-3.7,11.8,2.7L106,175.9z"/>
	<g>
		
			<linearGradient id="SVGID_3_" gradientUnits="userSpaceOnUse" x1="249.218" y1="901.8028" x2="-4.9598" y2="826.9344" gradientTransform="matrix(0.972 0.2349 -0.2349 0.972 289.7212 -780.6353)">
			<stop  offset="0" style="stop-color:#8C8C8C"/>
			<stop  offset="3.724181e-002" style="stop-color:#9F9F9F"/>
			<stop  offset="0.1196" style="stop-color:#C2C2C2"/>
			<stop  offset="0.1973" style="stop-color:#DBDBDB"/>
			<stop  offset="0.2677" style="stop-color:#EAEAEA"/>
			<stop  offset="0.3242" style="stop-color:#F0F0F0"/>
			<stop  offset="0.511" style="stop-color:#C7C7C7"/>
			<stop  offset="0.7088" style="stop-color:#E0E0E0"/>
			<stop  offset="0.8221" style="stop-color:#DEDEDE"/>
			<stop  offset="0.8705" style="stop-color:#D7D7D7"/>
			<stop  offset="0.9065" style="stop-color:#CBCBCB"/>
			<stop  offset="0.9364" style="stop-color:#B9B9B9"/>
			<stop  offset="0.9625" style="stop-color:#A2A2A2"/>
			<stop  offset="0.9856" style="stop-color:#868686"/>
			<stop  offset="1" style="stop-color:#707070"/>
		</linearGradient>
		<path fill="url(#SVGID_3_)" stroke="#E9EAEA" stroke-width="0.6312" d="M240.9,29.5c0.7-0.8,1.4-1.7,2-2.8
			c2.6-4.8,2-10.1-1.4-11.9c-3.3-1.8-8.1,0.6-10.6,5.4c-0.6,1.1-1,2.2-1.3,3.3c-63.3-29.7-139.4-5-172.9,57.3
			c-11.5,21.5,223.5,144,233.5,125.4C324,143.4,301.8,65.4,240.9,29.5z"/>
		
			<linearGradient id="SVGID_4_" gradientUnits="userSpaceOnUse" x1="166.3573" y1="805.8519" x2="166.3573" y2="956.2283" gradientTransform="matrix(0.972 0.2349 -0.2349 0.972 289.7212 -780.6353)">
			<stop  offset="0" style="stop-color:#E0E0E0"/>
			<stop  offset="1" style="stop-color:#FFFFFF"/>
		</linearGradient>
		<path opacity="0.65" fill="url(#SVGID_4_)" d="M201.6,171.5c18.8,9.2,36.8,17.2,51.4,22.7c9.6-19,23.2-108.9,5.4-147
			c-5.3-4.5-6.6-5.6-12.8-9.4C246.3,37,254,87.7,201.6,171.5z"/>
		
			<linearGradient id="SVGID_5_" gradientUnits="userSpaceOnUse" x1="9.7537" y1="855.8058" x2="101.2921" y2="855.8058" gradientTransform="matrix(0.972 0.2349 -0.2349 0.972 289.7212 -780.6353)">
			<stop  offset="0" style="stop-color:#E0E0E0"/>
			<stop  offset="0.5165" style="stop-color:#FFFFFF"/>
			<stop  offset="1" style="stop-color:#CFCFCF"/>
		</linearGradient>
		<path opacity="0.65" fill="url(#SVGID_5_)" d="M198.7,15.8c-35.8,11.9-79.8,36.5-113.6,91.7c6.6,4.9,11.7,7.9,11.7,7.9
			c34-67.4,71.8-88.4,104.5-99.2C200.4,15.9,199.7,16.3,198.7,15.8z"/>
		
			<linearGradient id="SVGID_6_" gradientUnits="userSpaceOnUse" x1="140.1417" y1="797.9745" x2="140.1417" y2="785.5554" gradientTransform="matrix(0.972 0.2349 -0.2349 0.972 289.7212 -780.6353)">
			<stop  offset="0" style="stop-color:#E0E0E0"/>
			<stop  offset="1" style="stop-color:#FFFFFF"/>
		</linearGradient>
		<path opacity="0.4" fill="url(#SVGID_6_)" d="M236.1,25c0.6,0.7,1.8,3,3.7,3.2c1.3-1.2,4-5.3,3-9.5c-0.8-2.7-2.5-3.1-2.6-3.2
			C240.2,15.5,241.2,19.2,236.1,25z"/>
	</g>
	<g>
		<g>
			<g>
				<path fill="#B8B8B8" d="M39.5,173.2c-8.7-1.6,5.3-17.7,5.8-20.6c1-5.9-3.2-10.3-4.3-15.8c0.2,1-0.2,2.1,0,3.2
					c0.8,4.1,3.5,7.4,4.4,11.4c0-1,0-2.1,0-3.1c-0.1,4.8-4.6,7.8-6.6,11.9c-1.2,2.5-1.8,5.2-1.9,8c-0.1,2.6-0.7,7.7,2.6,8.3
					C39.3,176.3,39.7,173.2,39.5,173.2L39.5,173.2z"/>
			</g>
		</g>
		<g>
			<g>
				<path fill="#B8B8B8" d="M63,159.7c-6-0.7-4.4-9.6-3.3-13.5c2-7.5,7.4-12.1,11.3-18.5c6.2-10.3-3.6-19.4-5.4-29.5
					c0.2,1-0.2,2.1,0,3.2c1.2,7.1,6.8,13,7.4,20c0-1,0-2.1,0-3.1c-0.4,6.9-6.6,11.4-10,17c-2.5,4.2-3.9,8.9-4.3,13.8
					c-0.3,4.2-1.2,13.2,4.3,13.8C62.9,162.9,63.1,159.8,63,159.7L63,159.7z"/>
			</g>
		</g>
	</g>
</g>
<g>
	<path fill="#CC0000" d="M386.8,41.1l0.7-0.6c14.8,0.5,23.4,0.7,25.7,0.7c2,0,10.6-0.2,25.7-0.7l0.7,0.6v4.5l-0.7,0.6
		c-4.1,0.1-7.3,0.3-9.6,0.5c-2.2,0.2-3.9,0.7-4.9,1.3c-1,0.7-1.7,2.2-2,4.6c-0.3,2.4-0.5,5.8-0.5,10.1l-0.2,20.6v39.7
		c0,9.9,0.1,16.9,0.2,20.8l0.4,15.5h18.3c14.6,0,23.7-0.2,27.3-0.5c3.6-0.4,7.1-1.2,10.5-2.6c0.7-1.5,1.6-4.9,2.8-10.3
		c1.2-5.4,1.9-8.5,1.9-9.3l0.8-0.7h4.4l0.6,0.7c-0.5,2.4-1,7-1.5,13.9c-0.5,6.9-0.8,12.4-0.8,16.7l-0.7,0.7
		c-11.4-0.4-26.3-0.5-44.8-0.5l-26.2-0.2c-6,0-9,1.7-15.7,3.1l-7,2l-0.5-7.5l4.9-1.4c3.7-1.9,5.7-3.1,6.1-3.5
		c0.4-0.4,0.7-4.3,1.1-11.6c0.4-7.3,0.6-16.1,0.6-26.4V83.5L404.5,66c-0.1-6.8-0.2-11.2-0.5-13.2c-0.3-2-0.7-3.3-1.3-3.9
		c-0.6-0.7-1.7-1.2-3.3-1.6c-1.6-0.4-5.6-0.7-11.9-1l-0.7-0.6V41.1z"/>
	<path fill="#600000" d="M528,133.7l-2.2,4.9c-4.7,3-8.9,5-12.6,5.9c-3.7,0.9-7,1.4-9.9,1.4c-5.4,0-10.6-1.1-15.5-3.2
		c-4.9-2.1-8.8-5.7-11.9-10.8c-3.1-5.1-4.6-11.2-4.6-18.3c0-4.8,0.6-9.1,1.8-12.9c1.2-3.8,2.4-6.7,3.7-8.5c1.3-1.9,3.5-3.9,6.6-6.2
		c3.1-2.3,6.3-4.1,9.8-5.4c3.4-1.4,7.2-2,11.1-2c5.4,0,10.2,1.3,14.4,3.8c4.1,2.6,7.1,5.8,8.7,9.8c1.7,4,2.5,8.2,2.5,12.7
		c0,1.4-0.1,2.8-0.2,4.1l-0.7,0.7c-3.1,0.7-7.2,1.1-12.4,1.4c-5.2,0.2-8.7,0.3-10.3,0.3h-21.8c0.1,9.4,2.4,16.3,7.1,20.7
		c4.6,4.4,10.3,6.7,17,6.7c3.2,0,6.2-0.5,9.1-1.6c2.9-1.1,6-2.6,9.3-4.6L528,133.7z M484.5,105.9c0.8,0.1,4,0.3,9.4,0.5
		c5.5,0.2,9.5,0.3,12.1,0.3c6.3,0,10.1-0.1,11.5-0.3c0-1.1,0.1-1.9,0.1-2.5c0-7-1.4-12.2-4.3-15.7c-2.9-3.4-6.8-5.1-11.7-5.1
		c-5.4,0-9.6,1.9-12.6,5.8C486,92.6,484.5,98.3,484.5,105.9z"/>
	<path fill="#D63333" d="M567.8,126.3c0,0-4.4-0.7-4.7-1.8c-0.3-1.1-1.1-2.3-2.4-3.6s-3.2-2.4-5.6-3.3c-2.4-0.9-4.9-1.3-7.6-1.3
		c-2.8,0-5.1,0.4-7,1.2c-1.9,0.8-3.4,2.1-4.6,3.7c-1.2,1.7-1.7,3.7-1.7,6c0,1.7,0.4,3.3,1.1,4.6c0.7,1.4,1.8,2.5,3.2,3.3
		c1.4,0.8,3,1.4,4.6,1.8l7.4,1.9c6.3,1.5,10.9,2.9,13.6,4s4.9,2.8,6.4,5.1c1.5,2.3,2.2,5.1,2.2,8.3c0,6.3-2.6,11.6-7.7,16.1
		c-5.2,4.5-11.8,6.7-19.9,6.7c-2.9,0-6.4-0.3-10.6-1c-4.2-0.6-7.9-1.3-10.8-2.1l-0.3-0.9l0.7-4.6c0.2-1.4,0.4-2.8,0.4-4.2
		c0-1.4,0.1-4.4,0.1-9l0.6-0.6h2.9l0.6,0.6c0.1,3.8,0.3,7.1,0.7,9.8c1.4,2.1,3.8,3.9,7.3,5.2c3.4,1.3,6.8,2,10.2,2
		c4.8,0,8.6-1.3,11.5-3.9c2.9-2.6,4.3-5.7,4.3-9.2c0-1.9-0.5-3.6-1.6-5.1c-1-1.4-2.6-2.6-4.7-3.5c-2.1-0.9-5.9-2-11.3-3.3
		c-4.7-1.1-7.9-1.9-9.8-2.5s-3.6-1.6-5.4-3.1c-1.7-1.5-3-3.2-3.9-5.3c-0.9-2.1-1.4-4.4-1.4-7c0-6.1,2.4-10.9,7.2-14.6
		c4.8-3.6,10.8-5.5,18-5.5c3,0,6.3,0.4,9.9,1.3c3.6,0.8,6.3,1.6,8.2,2.4"/>
	<path d="M668.3,96.1v20.3l0.1,19.5c0.1,7.3,0.3,12.1,0.6,14.5c0.3,2.4,0.8,3.9,1.5,4.6c0.6,0.7,1.9,1.3,3.7,1.8
		c1.8,0.5,6.2,0.9,13.3,1.2l0.8,0.6v5l-0.8,0.8c-17-0.5-26.6-0.8-28.8-0.8c-2.1,0-11.7,0.3-28.7,0.8l-0.8-0.8v-5l0.8-0.6
		c6.3-0.3,10.4-0.6,12.5-1c2-0.4,3.4-0.9,4.1-1.6c0.7-0.7,1.3-2,1.7-4c0.4-2,0.7-6.5,0.8-13.6l0.1-21.3V70L649,50.5
		c-0.1-7.6-0.3-12.5-0.5-14.7c-0.3-2.2-0.8-3.7-1.4-4.4c-0.6-0.7-1.9-1.3-3.7-1.8c-1.8-0.5-6.2-0.8-13.3-1.1l-0.8-0.7v-5L630,22
		c28.3,0.4,44.9,0.6,49.6,0.6c15.9,0,32.2-0.2,48.9-0.6l0.8,0.7c-1.1,3.3-1.8,7.1-2.1,11.4c-0.3,4.2-0.7,10.2-1.1,18l-0.8,0.8h-4.7
		l-0.7-0.8c-0.1-0.5-0.4-3-0.9-7.7c-0.3-3.7-0.9-7-1.6-10.1c-6.9-2.3-16.5-3.5-28.8-3.5c-5.5,0-11.9,0.4-19.2,1.2
		c-0.7,5.2-1.1,17.9-1.1,38.1v17.3c8.5,0.1,14.3,0.2,17.3,0.2c5.7,0,10.6-0.2,14.6-0.7c4.1-0.4,6.5-0.9,7.3-1.3
		c0.8-0.4,1.4-1.2,1.9-2.3c0.4-1.1,0.9-3.5,1.3-7.3l0.6-5.4l0.7-0.8h5.1l0.8,0.9l-0.7,21.9c0,2.5,0.1,6.2,0.3,11
		c0.3,5.5,0.4,9.7,0.4,12.7l-0.9,0.8h-5l-0.7-0.8l-0.4-8.5c-0.2-3.3-0.5-5.8-1-7.3c-0.5-1.5-1.2-2.5-2.3-3c-1.1-0.5-3.4-0.9-7.1-1.3
		c-3.7-0.4-9.3-0.6-16.9-0.6C676.8,95.8,671.7,95.9,668.3,96.1z"/>
	<path fill="#666666" d="M742.2,125.8l1.3,0.9c-0.5,5.9-0.7,13.5-0.7,22.6v15.4c0,1,0.1,4.2,0.3,9.6c0.2,5.4,0.4,8.6,0.6,9.5
		c0.2,0.9,0.5,1.6,0.9,2c0.4,0.4,0.9,0.7,1.5,0.8c0.6,0.1,3,0.3,7.3,0.6l0.6,0.5v2.9l-0.5,0.6c-5.7-0.4-11.1-0.5-16.4-0.5
		c-5.2,0-10.6,0.2-16.3,0.5l-0.6-0.6v-2.9l0.6-0.5c4.4-0.3,6.9-0.5,7.4-0.6c0.6-0.1,1.1-0.4,1.5-0.8s0.7-1.1,0.9-2
		c0.2-0.9,0.3-3.8,0.5-8.8c0.2-5,0.3-8.7,0.3-11.2v-13.4c0-1.8-0.1-4.3-0.3-7.4c-0.2-3.1-0.3-5.1-0.4-5.8c-0.1-0.7-0.5-1.3-1.1-1.6
		c-0.6-0.3-1.8-0.5-3.5-0.5l-5.7-0.1l-0.6-0.5v-2.9l0.5-0.5C729,129.9,736.3,128.2,742.2,125.8z M736.4,95.4c2.1,0,3.9,0.7,5.4,2.2
		c1.5,1.5,2.2,3.3,2.2,5.4c0,2.1-0.7,3.9-2.2,5.4c-1.5,1.5-3.3,2.2-5.4,2.2c-2.1,0-3.9-0.7-5.4-2.2c-1.5-1.5-2.3-3.3-2.3-5.4
		c0-2.1,0.8-3.9,2.3-5.4C732.5,96.2,734.3,95.4,736.4,95.4z"/>
	<path fill="#333333" d="M775.1,103.8l1.3,0.9c-0.3,3-0.5,7-0.5,12c3.6-3,7.1-6,10.3-9.1c1-0.9,1.8-1.5,2.7-1.9
		c0.8-0.4,2.2-0.8,4.2-1.3c1.9-0.5,3.9-0.7,6-0.7c3.4,0,6.8,0.7,10,2.1c3.2,1.4,5.7,3.1,7.3,5c1.7,1.9,2.8,4.2,3.4,6.8
		c0.6,2.6,1,5.9,1,9.7v12c0,0.8,0.1,6.4,0.3,16.9c0.1,4.3,0.6,6.9,1.4,7.7c0.9,0.8,3.7,1.2,8.4,1.2l0.5,0.5v2.9l-0.5,0.5
		c-5.8-0.4-9.7-0.5-11.7-0.5c-1.2,0-4.5,0.2-9.9,0.5l-0.8-0.7c0.6-5.9,0.9-13.6,0.9-23v-8.9c0-5.3-0.1-9.2-0.4-11.6
		c-0.3-2.4-1-4.5-2.3-6.4c-1.3-1.9-3-3.4-5.1-4.5c-2.1-1.1-4.7-1.6-7.6-1.6c-2.4,0-4.4,0.2-6,0.7c-1.7,0.5-3.6,1.5-5.6,2.9
		c-2.1,1.5-3.6,2.9-4.6,4.1c-1,1.3-1.6,2.5-1.8,3.6c-0.2,1.1-0.3,3.5-0.3,7.1v11.8c0,1,0.1,4.2,0.3,9.6c0.2,5.4,0.4,8.6,0.6,9.5
		c0.2,0.9,0.5,1.6,0.9,2c0.4,0.4,0.9,0.7,1.5,0.8c0.6,0.1,3,0.3,7.3,0.6l0.6,0.5v2.9l-0.5,0.6c-5.7-0.4-11.1-0.5-16.4-0.5
		c-5.2,0-10.6,0.2-16.3,0.5l-0.6-0.6v-2.9l0.6-0.5c4.4-0.3,6.9-0.5,7.4-0.6c0.6-0.1,1.1-0.4,1.5-0.8c0.4-0.4,0.7-1.1,0.9-2
		c0.2-0.9,0.3-3.8,0.5-8.8c0.2-5,0.3-8.7,0.3-11.2v-13.4c0-1.8-0.1-4.3-0.3-7.4c-0.2-3.1-0.3-5.1-0.4-5.8c-0.1-0.7-0.5-1.3-1.1-1.6
		c-0.6-0.3-1.8-0.5-3.5-0.5l-5.7-0.1l-0.6-0.5v-2.9l0.5-0.5C761.9,107.8,769.2,106.1,775.1,103.8z"/>
	<path fill="#0D0909" d="M884.7,175.1l-2.2,4.9c-4.7,3-8.9,5-12.6,5.9c-3.7,0.9-7,1.4-9.9,1.4c-5.4,0-10.6-1.1-15.5-3.2
		c-4.9-2.1-8.8-5.7-11.9-10.8c-3.1-5.1-4.6-11.2-4.6-18.3c0-4.8,0.6-9.1,1.8-12.9c1.2-3.8,2.4-6.7,3.7-8.5c1.3-1.9,3.5-3.9,6.6-6.2
		c3.1-2.3,6.3-4.1,9.8-5.4c3.4-1.4,7.2-2,11.1-2c5.4,0,10.2,1.3,14.4,3.8c4.1,2.6,7.1,5.8,8.7,9.8c1.7,4,2.5,8.2,2.5,12.7
		c0,1.4-0.1,2.8-0.2,4.1l-0.7,0.7c-3.1,0.7-7.2,1.1-12.4,1.4c-5.2,0.2-8.7,0.3-10.3,0.3h-21.8c0.1,9.4,2.4,16.3,7.1,20.7
		c4.6,4.4,10.3,6.7,17,6.7c3.2,0,6.2-0.5,9.1-1.6c2.9-1.1,6-2.6,9.3-4.6L884.7,175.1z M841.1,147.3c0.8,0.1,4,0.3,9.4,0.5
		c5.5,0.2,9.5,0.3,12.1,0.3c6.3,0,10.1-0.1,11.5-0.3c0-1.1,0.1-1.9,0.1-2.5c0-7-1.4-12.2-4.3-15.7c-2.9-3.4-6.8-5.1-11.7-5.1
		c-5.4,0-9.6,1.9-12.6,5.8C842.6,134,841.1,139.7,841.1,147.3z"/>
	<path fill="#999999" d="M884.3,145.8h2.9l0.6,0.6c0.1,3.8,0.3,7.1,0.7,9.8c1.4,2.1,3.8,3.9,7.3,5.2c3.4,1.3,6.8,2,10.2,2
		c4.8,0,8.6-1.3,11.5-3.9c2.9-2.6,4.3-5.7,4.3-9.2c0-1.9-0.5-3.6-1.6-5.1c-1-1.4-2.6-2.6-4.7-3.5c-2.1-0.9-5.9-2-11.3-3.3
		c-4.7-1.1-7.9-1.9-9.8-2.5c-1.9-0.6-3.6-1.6-5.4-3.1c-1.7-1.5-3-3.2-3.9-5.3c-0.9-2.1-1.4-4.4-1.4-7c0-6.1,2.4-10.9,7.2-14.6
		c4.8-3.6,10.8-5.5,18-5.5c3,0,6.3,0.4,9.9,1.3c3.6,0.8,6.3,1.6,8.2,2.4l0.6,1c-0.4,1.8-0.6,6.6-0.7,14.3l-0.6,0.6h-2.7l-0.6-0.6
		c-0.2-2.8-0.4-4.7-0.7-5.8c-0.3-1.1-1.1-2.3-2.4-3.6s-3.2-2.4-5.6-3.3c-2.4-0.9-4.9-1.3-7.6-1.3c-2.8,0-5.1,0.4-7,1.2
		c-1.9,0.8-3.4,2.1-4.6,3.7c-1.2,1.7-1.7,3.7-1.7,6c0,1.7,0.4,3.3,1.1,4.6c0.7,1.4,1.8,2.5,3.2,3.3c1.4,0.8,3,1.4,4.6,1.8l7.4,1.9
		c6.3,1.5,10.9,2.9,13.6,4c2.7,1.1,4.9,2.8,6.4,5.1c1.5,2.3,2.2,5.1,2.2,8.3c0,6.3-2.6,11.6-7.7,16.1s-11.8,6.7-19.9,6.7
		c-2.9,0-6.4-0.3-10.6-1c-4.2-0.6-7.9-1.3-10.8-2.1l-0.3-0.9l0.7-4.6c0.2-1.4,0.4-2.8,0.4-4.2s0.1-4.4,0.1-9L884.3,145.8z"/>
	<path fill="#F7931E" d="M1116.6,107.2v2.7l-0.4,1.1l-4.9,2.6c-1.2,0.7-1.9,1.2-2.1,1.5c-0.2,0.4-0.4,2.2-0.7,5.4
		c-0.3,3.2-0.4,7.2-0.4,11.8c0,5.2,0.4,10.9,1.1,17.1l-0.6,0.9c-18.2,6.3-36.9,9.5-56,9.5c-14.7,0-28-2.5-39.9-7.6
		c-11.9-5.1-21.3-12.6-28.3-22.5S974,108,974,94.3c0-20.9,7.8-37.5,23.5-49.8c15.7-12.3,36.2-18.5,61.4-18.5
		c18.6,0,35.3,2.9,50.1,8.6l0.7,1c-1.2,4-2.6,12.5-4.2,25.4l-0.8,0.6h-4.6l-0.8-0.7l-0.5-9.6c-0.2-3.1-0.4-5-0.6-5.5
		c-0.2-0.5-0.9-1.3-2.1-2.1c-1.2-0.9-4.3-2.3-9.2-4.2c-4.9-1.9-9.9-3.3-14.9-4.2c-5-0.9-10.3-1.3-16-1.3c-12.1,0-22.9,2.3-32.2,6.9
		c-9.4,4.6-16.4,11.3-21.1,20c-4.7,8.8-7.1,18.5-7.1,29.3c0,11.1,2.6,21.4,7.7,31c5.1,9.6,12.4,17,22,22.4
		c9.6,5.4,20.7,8.1,33.3,8.1c5.5,0,11.1-0.5,16.9-1.5c5.7-1,10.5-2.4,14.2-4.2c0.6-1.9,0.9-5.8,0.9-11.7v-10c0-4.8-0.3-7.7-1-8.9
		c-0.7-1.2-2.3-2-4.9-2.5c-2.6-0.5-8.3-0.8-17-0.9l-0.9-0.8v-4l0.9-0.8l6.1,0.2c10.4,0.3,18.9,0.5,25.5,0.5c3.8,0,9.3-0.2,16.6-0.5
		L1116.6,107.2z"/>
	<path fill="#FABE78" d="M1126.9,77l1.4,1c-0.5,6.5-0.8,14.8-0.8,24.9v17.4c0,6.4,0.5,10.8,1.5,13.3c1,2.5,2.7,4.4,5,5.7
		c2.4,1.3,5.2,2,8.5,2c3.6,0,7-0.7,9.9-2.1c3-1.4,5.5-3.4,7.5-6c2-2.6,3.2-4.3,3.5-5.2s0.5-3.4,0.6-7.6l0.2-8.4v-8.1
		c0-2-0.1-4.7-0.3-8.1c-0.2-3.4-0.4-5.6-0.5-6.4c-0.1-0.8-0.5-1.4-1.2-1.8c-0.6-0.4-1.9-0.6-3.9-0.6l-6.3-0.1l-0.7-0.6v-3.2l0.6-0.6
		c9.5-1.1,17.5-3,24.1-5.6l1.4,1c-0.5,6.5-0.8,14.8-0.8,24.9V116c0,0.7,0.1,6.9,0.4,18.3c0.1,4.2,0.4,6.8,0.8,7.7
		c0.4,0.9,1,1.6,1.8,1.9c0.7,0.4,3,0.6,6.7,0.6h2.1l0.7,0.6v3l-0.6,0.7c-7-0.4-11.7-0.6-14.1-0.6c-3,0-6.6,0.2-10.5,0.5l-0.7-0.6
		c0.3-5.1,0.5-9.4,0.7-12.9c-3.1,2.4-6.7,5.7-10.8,9.8c-1.5,1.5-3.8,2.8-6.7,3.9c-2.9,1-6.2,1.6-9.9,1.6c-5.6,0-9.9-0.9-13-2.7
		c-3.1-1.8-5.3-4.2-6.6-7.3c-1.3-3.1-1.9-8.5-1.9-16.1l0.1-5.9v-14.6c0-2-0.1-4.7-0.3-8.1c-0.2-3.4-0.4-5.6-0.5-6.4
		c-0.1-0.8-0.5-1.4-1.2-1.8c-0.6-0.4-1.9-0.6-3.9-0.6l-6.3-0.1l-0.7-0.6v-3.2l0.6-0.6C1112.3,81.5,1120.3,79.6,1126.9,77z"/>
	<path fill="#B96E16" d="M1251.1,170.4l-2.4,5.4c-5.2,3.3-9.8,5.5-13.9,6.5c-4.1,1-7.7,1.5-10.9,1.5c-6,0-11.7-1.2-17-3.5
		c-5.4-2.3-9.7-6.3-13.1-11.9c-3.4-5.6-5-12.3-5-20.2c0-5.2,0.6-10,1.9-14.2c1.3-4.2,2.7-7.3,4.1-9.4c1.4-2,3.8-4.3,7.2-6.8
		c3.4-2.5,7-4.5,10.8-6c3.8-1.5,7.9-2.2,12.3-2.2c6,0,11.3,1.4,15.8,4.2c4.6,2.8,7.8,6.4,9.6,10.8c1.8,4.4,2.8,9,2.8,14
		c0,1.5-0.1,3-0.2,4.5l-0.8,0.8c-3.4,0.7-8,1.2-13.7,1.5c-5.7,0.2-9.5,0.4-11.4,0.4h-24c0.1,10.3,2.7,17.9,7.8,22.8
		c5.1,4.9,11.3,7.3,18.7,7.3c3.5,0,6.8-0.6,10.1-1.8c3.2-1.2,6.6-2.9,10.2-5L1251.1,170.4z M1203.2,139.8c0.9,0.1,4.3,0.3,10.4,0.5
		c6,0.2,10.5,0.3,13.3,0.3c6.9,0,11.1-0.1,12.6-0.4c0-1.2,0.1-2.1,0.1-2.8c0-7.7-1.6-13.5-4.7-17.2s-7.4-5.6-12.9-5.6
		c-5.9,0-10.6,2.1-13.9,6.4C1204.9,125.2,1203.2,131.5,1203.2,139.8z"/>
	<path fill="#F7931E" d="M1265,85.3l1.4,1c-0.5,6.5-0.8,14.8-0.8,24.9V123c0,6.4,0.5,16.3,1.5,18.8s2.7,4.4,5,5.7
		c2.4,1.3,5.2,2,8.5,2c3.6,0,7-0.7,9.9-2.1c3-1.4,5.5-3.4,7.5-6c2-2.6,3.2-4.3,3.5-5.2s0.5-3.4,0.6-7.6l0.2-8.4v-8.1
		c0-2-0.1-4.7-0.3-8.1c-0.2-3.4-0.4-5.6-0.5-6.4c-0.1-0.8-0.5-1.4-1.2-1.8c-0.6-0.4-1.9-0.6-3.9-0.6l-6.3-0.1l-0.7-0.6v-3.2l0.6-0.6
		c9.5-1.1,17.5-3,24.1-5.6l1.4,1c-0.5,6.5-0.8,14.8-0.8,24.9v13.2c0,0.7,0.1,6.9,0.4,18.3c0.1,4.2,0.4,6.8,0.8,7.7
		c0.4,0.9,1,1.6,1.8,1.9c0.7,0.4,3,0.6,6.7,0.6h2.1l0.7,0.6v3l-0.6,0.7c-7-0.4-11.7-0.6-14.1-0.6c-3,0-6.6,0.2-10.5,0.5l-0.7-0.6
		c0.3-5.1,0.5-9.4,0.7-12.9c-3.1,2.4-6.7,5.7-10.8,9.8c-1.5,1.5-3.8,2.8-6.7,3.9s-6.2,1.6-9.9,1.6c-5.6,0-9.9-0.9-13-2.7
		c-3.1-1.8-5.3-4.2-6.6-7.3c-1.3-3.1-1.9-8.5-1.9-16.1l0.1-5.9v-14.6c0-2-0.1-4.7-0.3-8.1c-0.2-3.4-0.4-5.6-0.5-6.4
		c-0.1-0.8-0.5-1.4-1.2-1.8c-0.6-0.4-1.9-0.6-3.9-0.6l-6.3-0.1l-0.7-0.6v-3.2l0.6-0.6C1250.4,89.7,1258.4,87.9,1265,85.3z"/>
	<path fill="#FFBB6B" d="M1351.1,56.8l1.4,0.9c-0.6,5.7-0.8,17.2-0.8,34.5v46.9c0,1.1,0.1,4.6,0.3,10.6c0.2,6,0.4,9.4,0.6,10.4
		c0.2,1,0.6,1.7,1,2.2c0.5,0.5,1,0.7,1.6,0.9c0.6,0.1,3.3,0.3,8.1,0.6l0.7,0.6v3.1l-0.6,0.7c-6.2-0.4-12.2-0.6-18-0.6
		c-5.7,0-11.7,0.2-17.9,0.6l-0.7-0.7v-3.1l0.7-0.6c4.8-0.3,7.6-0.5,8.2-0.7c0.6-0.2,1.2-0.5,1.6-0.9c0.5-0.5,0.8-1.2,1-2.2
		c0.2-1,0.4-4.2,0.6-9.6c0.2-5.5,0.3-9.6,0.3-12.4V99.2l-0.3-15.8c-0.2-5.5-0.3-9.4-0.5-11.5c-0.2-2.1-0.4-3.4-0.7-3.8
		c-0.3-0.4-0.8-0.7-1.6-0.9c-0.7-0.2-3.8-0.3-9-0.3l-0.7-0.7V63l0.6-0.7C1336.6,61.3,1344.6,59.4,1351.1,56.8z"/>
	<path fill="#F7931E" d="M1425.5,137.3l-2.4,5.4c-5.2,3.3-9.8,5.5-13.9,6.5c-4.1,1-7.7,1.5-10.9,1.5c-6,0-11.7-1.2-17-3.5
		c-5.4-2.3-9.7-6.3-13.1-11.9c-3.4-5.6-5-12.3-5-20.2c0-5.2,0.6-10,1.9-14.2c1.3-4.2,2.7-7.3,4.1-9.4c1.4-2,3.8-4.3,7.2-6.8
		c3.4-2.5,7-4.5,10.8-6c3.8-1.5,7.9-2.2,12.3-2.2c6,0,11.3,1.4,15.8,4.2c4.6,2.8,7.8,6.4,9.6,10.8c1.8,4.4,2.8,9,2.8,14
		c0,1.5-0.1,3-0.2,4.5l-0.8,0.8c-3.4,0.7-8,1.2-13.7,1.5c-5.7,0.2-9.5,0.4-11.4,0.4h-24c0.1,10.3,2.7,17.9,7.8,22.8
		s11.3,7.3,18.7,7.3c3.5,0,6.8-0.6,10.1-1.8c3.2-1.2,6.6-2.9,10.2-5L1425.5,137.3z M1377.6,106.7c0.9,0.1,4.3,0.3,10.4,0.5
		c6,0.2,10.5,0.3,13.3,0.3c6.9,0,11.1-0.1,12.6-0.4c0-1.2,0.1-2.1,0.1-2.8c0-7.7-1.6-13.5-4.7-17.2c-3.1-3.8-7.4-5.6-12.9-5.6
		c-5.9,0-10.6,2.1-13.9,6.4C1379.3,92.1,1377.6,98.4,1377.6,106.7z"/>
	<path fill="#552F02" d="M1422,171.2c1.5,2.3,10.6,6.6,14.4,8.1c3.8,1.5,7.5,2.2,11.2,2.2c5.3,0,9.5-1.4,12.7-4.3
		c3.2-2.8,4.7-6.2,4.7-10.2c0-2.1-0.6-4-1.7-5.6c-1.1-1.6-2.9-2.9-5.2-3.9c-2.3-1-6.5-2.2-12.4-3.6c-5.1-1.2-8.7-2.1-10.8-2.8
		c-2-0.7-4-1.8-5.9-3.4c-1.9-1.6-3.3-3.5-4.3-5.9c-1-2.3-1.5-4.9-1.5-7.7c0-6.7,2.7-12,8-16c5.3-4,11.9-6,19.8-6
		c3.3,0,7,0.5,10.9,1.4s6.9,1.8,9,2.7l0.7,1c-0.4,2-0.6,7.2-0.7,15.7l-0.7,0.7h-3l-0.7-0.7c-0.2-3-0.5-5.2-0.8-6.4
		c-0.3-1.2-1.2-2.5-2.7-4c-1.4-1.4-3.5-2.6-6.1-3.6c-2.6-1-5.4-1.5-8.4-1.5c-3,0-5.6,0.5-7.7,1.3c-2.1,0.9-3.7,2.3-5,4.1
		c-1.3,1.8-1.9,4-1.9,6.6c0,1.9,0.4,3.6,1.2,5.1c0.8,1.5,2,2.7,3.6,3.6c1.6,0.9,3.3,1.6,5,2l8.1,2.1c7,1.7,12,3.2,15,4.4
		c3,1.2,5.3,3.1,7,5.6c1.6,2.5,2.5,5.6,2.5,9.2c0,6.9-2.8,12.8-8.5,17.7c-5.7,4.9-13,7.4-21.9,7.4c-3.1,0-7-0.3-11.7-1
		c-4.7-0.7-13.1-6.2-13.1-6.2"/>
</g>
<path fill="#CC0000" d="M392,164.8c1-0.3-6.9,3.2-12.1,4.6c-1.7,0.4-1.9,0.9-3.4,1.3c-0.9,0.8-3.2,1.9-4.4,2.5
	c-11.2,5.5-25.8,12.3-33.3-1.8c-3.5-6.6,0-16.4,6.2-22.4c4.2-4.1,14-6,19-1c3,4,5,9,3,13c-3,6-12,11-17,7c-5-6,8-13,5-18
	c-2-4-9,4-12,7c-2,4-2,8,0,12c5,9,17,4,24-2c6-7,4-19-5-23c-6-3-15,0-20,4c-5,5-8,10-6.7,16.8c0.1,1.4,0.3,2.7,0.6,4
	c0.6,2.6,1.7,5.2,3.2,7.5c0.9,1.1,1.9,2.2,3.1,3.1c1,0.9,2,1.6,3,2.3c1.1,0.6,2.2,1.2,3.4,1.6c1.3,0.6,2.7,1,4.1,1.4
	s4.3-1.9,5.9-1.9c1.2,0.3,3.1,0.4,4,0.4c4.2,0.4,9.1-0.8,9.1-0.8l6.7-2.5l14.1-7.7"/>
<path fill="#552F02" d="M1421,179.5c-2.3-1.2-0.5-0.9-3.3-1.5c-0.7-0.1-2-0.2-2.8-0.3c-0.8-0.1,0.5,0.1-2.8-0.2
	c-1.8-0.5-1.8-0.5-4.1-0.8c-8.4-1.3-17.5,1.3-21.9,8.3c-0.5,1.3-0.9,2.6-1.1,3.9c-0.2,1.4-0.3,2.7-0.3,4.5c-0.2,3.4,0.6,6.8,2.2,9.7
	c0.4,0.7,0.9,1.4,1.4,2.1c2.3,3.2,5.6,5.2,9.1,6c0.9,0.2,1.8,0.3,3.2,0.4C1411,212,1419,202,1414,193c-3-3-6-6-11-5c-4,1-7,8-2,10
	c0-4,6-7,8-3c3,5-1,10-6,11c-4,1-9-2-10-6c-2-8,4-14,12-14c10,1,15,11,10.7,20.4c-0.2,0.6-0.4,1.2-0.7,1.8s-0.6,1.2-1,1.8
	c-6,8-18,10-25.5,2.5c-1.1-0.7-2-1.5-2.8-2.5c-3.2-3.7-4.7-9-6.7-13c-3-9,3-20,12.7-23.2c1.4-0.5,2.5-0.9,3.3-1.1
	c1.6-0.5,3.2-0.9,5.1-1.3c5.5-1.3,9.9-1.4,11.8-1.3c4,0,7.5,0.6,10.2,1.2"/>
<path fill="#D63333" d="M567.8,126.3"/>
<path fill="#D63333" d="M572,124.9"/>
<path fill="#D63333" d="M567.8,115.1l6.2-3.6c0.2-0.1,0.3-0.2,0.4-0.4c3.7-5.1,7.4-8.7,10.8-11.3c0.6-0.4,1.1-0.9,1.7-1.3
	c0,0,0.1,0,0.1-0.1c3.9-3.5,9.9-5.5,16.2-5.8c0.8-0.1,2-0.1,3.3,0c9.9-0.6,17,7.6,16.4,15.6c-0.1,1,0.4,1.4,0,2.4
	c-0.2,0.9-0.4,2.1-1,3c-0.3,0.5-1.2,1.6-1.6,2.2c-1.8,3.6-6.4,6.3-10.4,7.3c-9,2-14.2-2.4-18.2-9.4c-0.3-1-1.6-3.6-1.3-4.5
	c1.2-3.8,0.2-1.3,1.2-3.8c0.3-0.8,2.7-3.8,3.3-4.2c0.6-0.4,1.5-1.2,2.1-1.4c1.7-0.8,3.1-1.4,4.9-1.4c0.6,0,1.2,0.1,1.8,0.2
	c0.7,0,1.4,0.1,2.3,0.3c0.6,0.1,1.2,0.3,1.9,0.6c1.9,0.5,3,0.9,4.8,2.8c0.4,0.5,0.9,1.2,1.3,1.9c3.2,5.8-0.7,13.5-5.9,14.4
	c-5.3,0.9-6.5-0.5-9-3.1c-2.3-2.3-2.5-9.6,1.9-10.6c-2,2-3,5-2,8c1,4,4,6,8,5c3-1,5.9-3,6.7-5.1c2-6-1.7-11.9-7.4-13
	c-0.8-0.2-1.5-0.2-2.2-0.2c-1.4,0-2.7,0.3-3.9,0.9c-0.6,0.3-1.1,0.6-1.6,0.9c-0.4,0.3-0.8,0.7-1.2,1.2c-0.5,0.5-0.9,1-1.3,1.5
	c-0.4,0.5-0.8,1-1.1,1.6c-0.3,0.6-0.5,1.2-0.7,1.9c-0.2,0.9-0.4,1.7-0.4,2.5c0,1.3,0.4,2.4,1.1,3.4c0.3,0.5,0.7,0.9,1.1,1.3
	c0.4,0.6,0.8,1.2,1.2,1.5c1.6,1.8,3.6,2.8,6.5,3.4c0.4,0.1,0.8,0.3,1.1,0.4c4,1,6.4-1.3,10-4c8-6.1,1.4-18.6-7.6-19.3
	c-1.1-0.2-6.6,0.4-7.6,0.4c-4.1,0.2-8,2-10.3,6.1c-0.7,0.9-1.3,1.6-1.9,2.3c-1.6,2.1-3.1,4.4-4.5,6.9c-0.8,1.5-15.1,13.2-15.4,14"/>
<path fill="#F7931E" d="M989.2,52.2c-2.8,0.1-15.2,17.7-18.4,16.9c-0.8-0.2-2.2-0.8-3-1.1c-0.9-0.3,0.6,0.2-3-1.2
	c-2.1-0.4-2.1-0.4-4.5-1.1c-9.2-2.8-17.6-9.7-19.3-18.7c0-1.5,0.1-3,0.4-4.4c0.3-1.5,0.8-2.8,1.5-4.5c1.1-3.4,3.3-6.4,6.1-8.5
	c0.7-0.5,1.4-1,2.2-1.4c3.6-2,7.9-2.4,11.8-1.5c1,0.2,2,0.6,3.5,1.1c11,4.5,15.3,18.3,6.5,24.7c-4.3,1.5-8.6,3-13.3-0.4
	c-3.7-2.9-4.1-11.3,1.9-10.9c-1.6,4,3.4,9.8,7.1,6.8c5.1-3.5,2.9-10.4-1.8-13.8c-3.7-2.9-10.1-2.4-12.7,1.1
	c-5.2,6.9-1.4,15.8,6.8,19.6c10.7,3.8,19.8-3.6,19.1-15c0-0.7,0-1.4,0-2.1c-0.1-0.7-0.2-1.5-0.3-2.3c-3-10.8-14.6-18.6-25.3-14.8
	c-1.4,0.2-2.6,0.6-3.8,1.1c-4.7,2.1-8.5,6.6-12.1,9.6c-6.7,7.5-4.8,21.2,3.9,29.1c1.3,1.2,2.2,2.1,2.9,2.7c1.4,1.3,3,2.4,4.7,3.8
	c5.2,3.9,9.7,6.1,11.7,7c4.2,1.9,10.5,5.8,13.5,6.5"/>
<text transform="matrix(1 0 0 1 1182.3052 239.0827)" font-family="'MyriadPro-Regular'" font-size="14">Vente en ligne de produits de la région Rhône-Alpes</text>
</svg>
